<?xml version="1.0" encoding="utf-8"?>
<!DOCTYPE svg PUBLIC "-//W3C//DTD SVG 1.1//EN" "http://www.w3.org/Graphics/SVG/1.1/DTD/svg11.dtd">
<svg version="1.1" id="Layer_1" xmlns="http://www.w3.org/2000/svg" xmlns:xlink="http://www.w3.org/1999/xlink" x="0px" y="0px"
	 viewBox="0 0 2753.9136 1770.6345" enable-background="new 0 0 2753.9136 1770.6345" xml:space="preserve">
<g>
	<path fill="#534741" d="M837.5168,1644.1073c13.38,6.9399,50.84,58.59,146.47,19.0599l33.5,8.41
		c-26.22,11.99-53.47,24.8-81.96,38.38c-10.04,4.79-21.65,4.98-31.86,0.58c-139.08-59.9099-416.65-127.76-416.65-127.76
		c52-14.6699,194.78-61.83,275.33,0C781.5868,1597.5472,817.8668,1633.9172,837.5168,1644.1073z"/>
	<path fill="#736357" d="M983.9868,1663.1672c-95.63,39.53-133.09-12.12-146.47-19.0599c-19.65-10.1901-55.93-46.5601-75.17-61.3301
		c35.45-3.0599,65.69-14.5199,89.17-36.87c20.53-29.45,59.2-49.63,104.5-44.33c72.08,8.4301,145.0001,21.11,216.17,11.7
		c-10.1699,23.04,3.4501,40.14,28.3301,28.9c45.37-2.5499,85.6399,2.28,116,21.4301c-91.2001,19.1899-185.41,55.99-299.03,107.97
		L983.9868,1663.1672z"/>
	<path fill="#736357" d="M2254.0168,1648.6073c-218.02,26.12-409.51-22.98-576-143c71.37-30.77,136.1499-73.67,195-127.5
		C1987.3568,1521.4473,2086.5967,1650.0272,2254.0168,1648.6073z"/>
	<path fill="#FF0000" d="M678.3468,866.1073c94.91,67.16,196.65,105.33,307.79,150.09c-28.37-7.01-57.68-13.69-87.79-20.09
		c-131.12-45.72-283.13-80.33-450.66-106.66c-92-56-137.52-56.26-175.34-105.34c-17.72-23-20.93-41.22,6-56.66
		c20.07-11.51,50.12-15.2,83.22-17.46l-3.48,31.58C485.7068,755.1873,588.2068,802.3173,678.3468,866.1073z"/>
	<path fill="#FF0000" d="M621.6868,702.1073c38.6801,53.16,63.04,107.41,56.66,164c-90.14-63.79-192.64-110.92-320.26-124.54
		l3.48-31.58c57.04-3.91,123.13-3.61,162.78-31.88C551.8068,692.8673,583.6868,701.6373,621.6868,702.1073z"/>
	<path fill="#FF0000" d="M527.6868,484.1073l26.86,62.3c14.44,46.8,38.44,99.74,67.14,155.7
		C513.8468,610.0073,475.0968,535.4473,527.6868,484.1073z"/>
	<path fill="#FF0000" d="M556.0468,497.4773c5.54,2.62,11.13-3.51,8.01-8.79l-15.71-26.58c134.54-29.86,245.5-19.5,325.34,44
		l-32.67,70.67c-96-11.67-179.59-15.85-286.47-30.37l-26.86-62.3L556.0468,497.4773z"/>
	<path fill="#FF0000" d="M894.0168,461.1073c84.86,64.74,197.48,75.93,331.0001,46.79c95.1499,90.72,158.48,187.52,164.7699,295.21
		c-113.4299-21.08-261.45-102.17-418.27-195.5c-28.58-17-73.4-28.78-130.5-30.83l32.67-70.67L894.0168,461.1073z"/>
	<path fill="#FF0000" d="M1561.9868,1052.4673l-167.64,167.64c-7.74-33.03-5.75-64.48,6.85-94.21l27.15,0.21
		C1464.2968,1085.7373,1509.7668,1062.8973,1561.9868,1052.4673z"/>
	<path fill="#FF0000" d="M1663.3468,951.1073l-101.36,101.36c-52.22,10.4301-97.6901,33.27-133.64,73.64l-27.15-0.21
		C1429.9067,1058.1373,1513.7468,999.3073,1663.3468,951.1073z"/>
	<path fill="#FF0000" d="M971.5168,607.6073c156.82,93.33,304.84,174.42,418.27,195.5c180.3201,29.29,257.91,81.68,273.5601,148
		c-149.6,48.2-233.4401,107.03-262.15,174.79c-12.6,29.73-14.59,61.1799-6.85,94.21c-64.95-93.13-214.9401-156.17-408.18-203.9
		c-0.01,0-0.02-0.01-0.03-0.01c-111.14-44.76-212.88-82.93-307.79-150.09c6.38-56.59-17.98-110.84-56.66-164
		c-28.7-55.96-52.7-108.9-67.14-155.7c106.88,14.52,190.47,18.7,286.47,30.37
		C898.1168,578.8273,942.9368,590.6073,971.5168,607.6073z"/>
	<path fill="#FF0000" d="M1479.3468,1305.1073l-53.51,32.16c-21.58-38.91-69.73-62.9601-133.9-78.04
		c-6.12-1.4401-10.26-7.12-9.8199-13.39c6.33-88.66-58.0801-119.37-149.77-127.73c-86.55-10.64-167.96-7.1901-258,16l13.54-72.97
		c0.5-2.67-2.86-4.28-4.63-2.2201l-63.57,73.86c-135.34-9.33-284.14,19.5-426.67,62c-74.08,13.7301-152.48,35.41-233.75,61.6001
		c-9.32,3.01-19.51-0.74-24.63-9.0901c-69.46-113.13-62.53-213.6599,14.04-302.73c10.83-12.6,25.96-20.74,42.44-22.81l256.57-32.3
		c167.53,26.33,319.54,60.94,450.66,106.66c30.11,6.4,59.42,13.08,87.79,20.09c0.01,0,0.02,0.01,0.03,0.01
		c193.2399,47.73,343.23,110.77,408.18,203.9L1479.3468,1305.1073z"/>
	<path fill="#FF0000" d="M1754.4167,1056.1873l-275.0699,248.92l-85-85l167.64-167.64
		C1619.2368,1041.0272,1684.5968,1044.5073,1754.4167,1056.1873z"/>
	<path fill="#FF0000" d="M1172.6068,1509.7673l-0.42,3.5099c-71.1699,9.41-144.09-3.2699-216.17-11.7
		c-169-17.47-303.67-230.13-563-306.8c142.53-42.5,291.33-71.33,426.67-62l63.57-73.86c1.77-2.0599,5.13-0.45,4.63,2.2201
		l-13.54,72.97c90.04-23.1901,171.45-26.64,258-16c91.6899,8.36,156.1,39.0699,149.77,127.73c-0.4401,6.27,3.7,11.95,9.8199,13.39
		c64.17,15.08,112.3201,39.13,133.9,78.04l-0.15,0.09l-144.6699,78.75l-31.3101,28.14l-73.4,65.96
		C1175.0668,1510.0673,1173.8368,1509.9172,1172.6068,1509.7673z"/>
	<path fill="#FF0000" d="M1265.4568,1461.7772c47.74-43.49,134.8201-65.95,238.23-79.6699c0,0,232-35.3301,268.66-48
		c36.67-12.66,122.5-127.25,190.67-209.3301c105.99-113.08,220.26-193.9399,341.24-262.5099l0.3499,0.63l-121.5898,119.21
		c-90.04,87.25-172,190.2999-248,305c-51.4401,40.78-106.9,74.9-167.5,100.5l13.0599,29.4199
		c35.24-15.1299,66.87-29.1699,92.4401-38.9199c-58.8501,53.83-123.63,96.73-195,127.5c-119.74,59.85-240.15,84.02-361.5,58
		c-30.3601-19.15-70.63-23.98-116-21.4301c-24.88,11.24-38.5-5.86-28.3301-28.9l0.42-3.5099c1.23,0.1499,2.46,0.2999,3.7,0.4399
		l73.4-65.96L1265.4568,1461.7772z"/>
	<path fill="#FF0000" d="M1935.0168,1287.1073c76-114.7001,157.96-217.75,248-305l76,12c-80.2,35.88-103.3401,107.78-72.04,214.03
		c3.25,11.0499-1.8401,22.85-12.1001,28.0699c-87.6399,44.52-165.1599,92.84-215.3599,151.4c-35.9-26.03-64.16-27.3301-86.5-9.5
		c-25.5701,9.75-57.2001,23.79-92.4401,38.9199l-13.0599-29.4199C1828.1168,1362.0073,1883.5768,1327.8873,1935.0168,1287.1073z"/>
	<path fill="#FF0000" d="M1890.3468,735.4473c22.62,65.54,26.61,135.15,12.67,208.66l-80,50
		C1822.9067,905.6873,1848.6469,819.7873,1890.3468,735.4473z"/>
	<path fill="#FF0000" d="M1503.6868,1382.1073c-103.4099,13.72-190.49,36.1799-238.23,79.6699l-15.75-17.5299l31.3101-28.14
		l144.6699-78.75l0.15-0.09l53.51-32.16l275.0699-248.92l68.6001-62.08l80-50c13.9399-73.51,9.95-143.12-12.67-208.66
		c26.65-70.03,72.5599-140.8,130-212c41.3099,15.12,99.86,13.28,184.7699-14.48c5.4602-1.78,11.3901-1.33,16.51,1.26
		c96.3801,48.71,225.7002,69.04,415.5901,37.21c4.8-0.8,9.6001,1.51,11.98,5.76c24.1899,43.19,26.1499,88.37-6.45,136.66
		c-2.7,4.02-6.46,7.23-10.8301,9.3c-113.55,53.76-223.1099,103.84-327.6599,163.11c-120.98,68.57-235.25,149.43-341.24,262.5099
		c-68.17,82.0801-154,196.67-190.67,209.3301C1735.6868,1346.7772,1503.6868,1382.1073,1503.6868,1382.1073z"/>
	<path fill="#FF0000" d="M1822.0168,770.2573c2.12-30.03-32.13-97.62-79.5-144.15c-40.9501-54.22-63.6901-113.35-71.5-176.5
		c151-103.5,337.5-94.5,386.5-52c27.51,23.87,7.6899,87.39-37.17,125.84c-57.4401,71.2-103.35,141.97-130,212
		c-41.7,84.34-67.4401,170.24-67.33,258.66l-68.6001,62.08c-69.8199-11.6799-135.1799-15.16-192.4299-3.72l101.36-101.36
		C1741.0868,903.6273,1792.7568,842.7173,1822.0168,770.2573z"/>
	<path fill="#FF0000" d="M1221.0168,375.6973c-31.9401,8.07-64.9701,15.82-98.5601,23.41l-0.01,0.01
		c-17.0499-14.6-38.89-26.89-64.39-37.41c-33.33-22.45-63.66-44.65-75.58-65.23c-6.29-10.86-5.12-24.54,2.78-34.29
		c14.73-18.16,30.45-30.26,47.36-34.93c8.35-2.31,17.24-1.93,25.4199,0.92c28.2401,9.83,56.6801,14.23,85.27,14.23v31.66h-83.6699
		c-7.5,0-13.5,6.41-12.8301,13.88C1051.2668,337.5373,1127.3468,359.9473,1221.0168,375.6973z"/>
	<path fill="#FF0000" d="M1058.0568,361.7073c25.5,10.52,47.3401,22.81,64.39,37.41c9.1801,7.83,16.97,16.34,23.1901,25.6
		c9.59,14.25,15.48,30.28,17.0499,48.39c-68.15-16.19-128.64-42.96-181.67-80c-15.71-14.08-29.77-28.44-42-43.08
		c-11.07-26.42-8.38-48.04-2.31-69.64c23.66,33.25,60.92,58.57,110.14,76.89
		C1050.6567,358.7173,1054.3969,360.1973,1058.0568,361.7073z"/>
	<path fill="#FF0000" d="M1162.6868,473.1073c20.67,4.92,42.04,8.87,64.13,11.83c10.5801,1.42,13.34,15.72,3.88,20.67
		c-1.65,0.86-3.5499,1.62-5.6799,2.29c-133.52,29.14-246.1401,17.95-331.0001-46.79l-81.53-65.22c-5.36-4.29-8.38-10.88-8.07-17.74
		c2.91-64.99,15.36-121.61,37.95-169.3c4.09-8.64,10.31-16.1,18.14-21.6c56.84-39.88,120.02-62.73,189.5101-68.64l-50.5001,79.5
		c-32.41,21.63-51.7,46.19-60.5,74.5c-0.81,2.6-1.58,5.19-2.31,7.78c-6.07,21.6-8.76,43.22,2.31,69.64
		c12.23,14.64,26.29,29,42,43.08C1034.0468,430.1473,1094.5367,456.9173,1162.6868,473.1073z"/>
	<path fill="#FF0000" d="M1084.4167,63.9173c120.89,33.64,238.13,37.37,349.7201-5.31c5.88-2.25,12.39-2.23,18.26,0.06
		c35.2599,13.77,63.23,29.21,81.12,46.94h-91c-54.66-5.22-115.88,0.34-180.5,11.5c-36.54,10.19-89.8401,15.58-147.12,19.83
		c-10.8301,0.8-21.3201,4.12-30.63,9.71c-27.75,16.66-56.12,33.89-84.7501,51.46l50.5001-79.5l25.0499-50.54
		C1076.7769,64.6173,1080.7068,62.8873,1084.4167,63.9173z"/>
	<path fill="#FF0000" d="M1120.1268,323.2573c33.45-12.59,76.61-4.77,125.88,15.88c-31.67-0.15-69.7201-2.84-105.66-4.69
		C1133.2168,330.6673,1126.4668,326.9373,1120.1268,323.2573z"/>
	<path fill="#FF0000" d="M1084.6868,299.7773l86.3301-2.67c30.5199,7.63,61.8999,27.09,74.99,42.03
		c-49.27-20.65-92.4301-28.47-125.88-15.88C1106.1469,315.1573,1094.1768,307.3073,1084.6868,299.7773z"/>
	<path fill="#FF0000" d="M1246.0068,339.1373c-13.0901-14.94-44.4701-34.4-74.99-42.03l-86.3301,2.67
		c9.49,7.53,21.4601,15.38,35.4401,23.48c6.34,3.68,13.09,7.41,20.22,11.19
		C1176.2867,336.2973,1214.3368,338.9873,1246.0068,339.1373z M1420.9468,311.3173c-55.74,24.62-124.78,45.39-199.9299,64.38
		c-93.67-15.75-169.75-38.16-174.2101-87.75c-0.6699-7.47,5.3301-13.88,12.8301-13.88h83.6699v-31.66c21.15,0,42.4-2.41,63.7101-6.8
		C1319.9868,238.5573,1426.4268,244.9973,1420.9468,311.3173z"/>
	<path fill="#FF0000" d="M1398.3368,153.0873c53.91,40.86,86.61,82.96,81.74,127.29c-17.36,11-37.22,21.27-59.13,30.94
		c5.48-66.32-100.96-72.76-213.9299-75.71c48.46-42.66,103.1899-73.61,166.9099-87.76
		C1382.4468,145.9573,1391.3868,147.8073,1398.3368,153.0873z"/>
	<path fill="#FF0000" d="M1122.4568,399.1073c33.59-7.59,66.62-15.34,98.5601-23.41c75.1499-18.99,144.1899-39.76,199.9299-64.38
		c21.91-9.67,41.77-19.94,59.13-30.94c19.76-12.51,36.29-25.95,48.9401-40.52c-7.9501-14.83-35.1901-35.69-69.5-58.75l93.5,32.5
		c26.47,5.95,20.21,39.58,0,85c-25.7101,53.69-57.4501,101.16-99,138.5c-45.67,33.6-98.74,32.99-157.7101,5
		c-62.1799-31.53-112.39-37.33-150.6699-17.39c-6.2201-9.26-14.01-17.77-23.1901-25.6L1122.4568,399.1073z"/>
	<path fill="#FF0000" d="M1480.0768,280.3773c4.87-44.33-27.83-86.43-81.74-127.29c-6.95-5.28-15.89-7.13-24.41-5.24
		c-63.72,14.15-118.45,45.1-166.9099,87.76c-21.3101,4.39-42.5601,6.8-63.7101,6.8c-28.59,0-57.0299-4.4-85.27-14.23
		c-8.1799-2.85-17.0699-3.23-25.4199-0.92c-16.91,4.67-32.63,16.77-47.36,34.93c-7.9,9.75-9.07,23.43-2.78,34.29
		c11.92,20.58,42.25,42.78,75.58,65.23c-3.6599-1.51-7.4-2.99-11.21-4.43c-49.22-18.32-86.48-43.64-110.14-76.89
		c0.73-2.59,1.5-5.18,2.31-7.78c8.8-28.31,28.09-52.87,60.5-74.5c28.6301-17.57,57.0001-34.8,84.7501-51.46
		c9.3099-5.59,19.7999-8.91,30.63-9.71c57.2799-4.25,110.58-9.64,147.12-19.83c64.62-11.16,125.84-16.72,180.5-11.5
		c93.38,39.83,161.3099,75.38,198.6,105.79l-20.6,24.21c27.24,17.22-11.4601,39.45-67.5,63c20.21-45.42,26.47-79.05,0-85l-93.5-32.5
		c34.3099,23.06,61.5499,43.92,69.5,58.75C1516.3668,254.4273,1499.8368,267.8673,1480.0768,280.3773z"/>
	<path fill="#FF0000" d="M1671.0168,271.0273c-136.9,147.84-224.9501,335.38-281.2301,532.08
		c-6.2899-107.69-69.62-204.49-164.7699-295.21c2.13-0.67,4.0299-1.43,5.6799-2.29c9.46-4.95,6.7001-19.25-3.88-20.67
		c-22.09-2.96-43.46-6.91-64.13-11.83c-1.5699-18.11-7.46-34.14-17.0499-48.39c38.2799-19.94,88.49-14.14,150.6699,17.39
		c58.9701,27.99,112.04,28.6,157.7101-5c41.5499-37.34,73.2899-84.81,99-138.5c56.0399-23.55,94.74-45.78,67.5-63l20.6-24.21
		c28.11,22.91,38.8099,42.91,29.91,59.61C1671.0269,271.0173,1671.0168,271.0173,1671.0168,271.0273z"/>
	<path fill="#FF0000" d="M1611.7668,484.3573c-82.5901,103.17-159.0801,206.92-221.9801,318.75
		c56.28-196.7,144.3301-384.24,281.2301-532.08c0-0.01,0.01-0.01,0.01-0.02c8.8999-16.7-1.8-36.7-29.91-59.61
		c-37.29-30.41-105.22-65.96-198.6-105.79h91c33.21,11.03,71.09,23.59,111.5,37c56.08,8.97,98.2799,24.29,133.24,42.91
		c7.96,4.23,11.8199,13.57,9.0699,22.15c-9.88,30.79-57.6799,91.77-128.3099,170.94l-35.5,69.5h-29.5L1611.7668,484.3573z"/>
	<path fill="#FF0000" d="M1742.5168,626.1073c47.37,46.53,81.62,114.12,79.5,144.15c-29.26,72.46-80.9301,133.37-158.67,180.85
		c-15.65-66.32-93.24-118.71-273.5601-148c62.9-111.83,139.39-215.58,221.9801-318.75l-17.75-36.25h29.5l35.5-69.5
		c7.25,24.25,11.1699,47.91,12,71C1678.8268,512.7573,1701.5668,571.8873,1742.5168,626.1073z"/>
	<path fill="#736357" stroke="#000000" stroke-width="11" stroke-miterlimit="18" d="M986.5168,1662.1073
		c-0.85,0.36-1.69,0.71-2.53,1.0599c-95.63,39.53-133.09-12.12-146.47-19.0599c-19.65-10.1901-55.93-46.5601-75.17-61.3301
		c-80.55-61.83-223.33-14.6699-275.33,0c0,0,277.57,67.8501,416.65,127.76c10.21,4.4,21.82,4.2101,31.86-0.58
		c28.49-13.58,55.74-26.39,81.96-38.38c113.62-51.98,207.83-88.78,299.03-107.97c121.35,26.02,241.76,1.85,361.5-58
		c71.37-30.77,136.1499-73.67,195-127.5c114.34,143.34,213.5798,271.9199,381,270.5c-218.02,26.12-409.51-22.98-576-143"/>
	<path fill="none" stroke="#000000" stroke-width="11" stroke-linejoin="round" stroke-miterlimit="18" d="M2134.0168,1140.1073
		c-39.5601,69.16-112.4501,113.22-199,147c76-114.7001,157.96-217.75,248-305l76,12c-80.2,35.88-103.3401,107.78-72.04,214.03
		c3.25,11.0499-1.8401,22.85-12.1001,28.0699c-87.6399,44.52-165.1599,92.84-215.3599,151.4c-35.9-26.03-64.16-27.3301-86.5-9.5
		c-25.5701,9.75-57.2001,23.79-92.4401,38.9199c-103.9399,44.64-239.28,98.8501-343.0599,81.0801"/>
	<path fill="none" stroke="#000000" stroke-width="11" stroke-miterlimit="18" d="M1935.0168,1287.1073
		c-51.4401,40.78-106.9,74.9-167.5,100.5"/>
	<path fill="none" stroke="#000000" stroke-width="11" stroke-miterlimit="18" d="M762.3468,1582.7772
		c35.45-3.0599,65.69-14.5199,89.17-36.87c20.53-29.45,59.2-49.63,104.5-44.33c72.08,8.4301,145.0001,21.11,216.17,11.7
		c-10.1699,23.04,3.4501,40.14,28.3301,28.9c8.5199-16.76,19.96-30.7999,36-40.6"/>
	<path fill="none" stroke="#000000" stroke-width="11" stroke-miterlimit="18" d="M1308.5168,1501.5773
		c-40.26,5.75-76.1101,19.5601-108,40.6c45.37-2.5499,85.6399,2.28,116,21.4301"/>
	<path fill="none" stroke="#000000" stroke-width="11" stroke-miterlimit="18" d="M986.1668,1016.2073
		c193.2399,47.73,343.23,110.77,408.18,203.9l85,85l-53.51,32.16l-0.15,0.09l-144.6699,78.75l-31.3101,28.14l-73.4,65.96
		c-1.24-0.14-2.47-0.29-3.7-0.4399c-130.61-15.8201-197.66-62.6101-233.09-93.66"/>
	<path fill="none" stroke="#000000" stroke-width="11" stroke-miterlimit="18" d="M956.0168,1501.5773
		c-169-17.47-303.67-230.13-563-306.8c-74.08,13.7301-152.48,35.41-233.75,61.6001c-9.32,3.01-19.51-0.74-24.63-9.0901
		c-69.46-113.13-62.53-213.6599,14.04-302.73c10.83-12.6,25.96-20.74,42.44-22.81l256.57-32.3
		c167.53,26.33,319.54,60.94,450.66,106.66c30.11,6.4,59.42,13.08,87.79,20.09"/>
	<path fill="none" stroke="#000000" stroke-width="11" stroke-miterlimit="18" d="M1427.6868,1340.7772
		c-0.59-1.1799-1.21-2.35-1.85-3.5099c-21.58-38.91-69.73-62.9601-133.9-78.04c-6.12-1.4401-10.26-7.12-9.8199-13.39
		c6.33-88.66-58.0801-119.37-149.77-127.73c-86.55-10.64-167.96-7.1901-258,16l13.54-72.97c0.5-2.67-2.86-4.28-4.63-2.2201
		l-63.57,73.86c-135.34-9.33-284.14,19.5-426.67,62"/>
	<path fill="none" stroke="#000000" stroke-width="11" stroke-linejoin="round" stroke-miterlimit="18" d="M1249.6868,1478.7772
		c4.64-6,9.91-11.6599,15.77-17c47.74-43.49,134.8201-65.95,238.23-79.6699c0,0,232-35.3301,268.66-48
		c36.67-12.66,122.5-127.25,190.67-209.3301c105.99-113.08,220.26-193.9399,341.24-262.5099
		c104.55-59.27,214.1099-109.35,327.6599-163.11c4.3701-2.07,8.1301-5.28,10.8301-9.3c32.5999-48.29,30.6399-93.47,6.45-136.66
		c-2.3799-4.25-7.1799-6.56-11.98-5.76c-189.8899,31.83-319.21,11.5-415.5901-37.21c-5.1199-2.59-11.0498-3.04-16.51-1.26
		c-84.9099,27.76-143.46,29.6-184.7699,14.48c-57.4401,71.2-103.35,141.97-130,212c-41.7,84.34-67.4401,170.24-67.33,258.66l80-50
		c88.48-48.65,251.3298-100.66,408-168.66c11.3-18.16-13.3801-38.13-49.3301-58.67"/>
	<path fill="none" stroke="#000000" stroke-width="11" stroke-miterlimit="18" d="M2311.0168,775.4473
		c47.3201-8.17,96-30.94,145.3298-60.67"/>
	<path fill="none" stroke="#000000" stroke-width="11" stroke-miterlimit="18" d="M1890.3468,735.4473
		c22.62,65.54,26.61,135.15,12.67,208.66"/>
	
		<line fill="none" stroke="#000000" stroke-width="11" stroke-miterlimit="18" x1="2183.0168" y1="982.1073" x2="2304.6067" y2="862.8973"/>
	<polyline fill="none" stroke="#000000" stroke-width="11" stroke-miterlimit="18" points="1823.0168,994.1073 1754.4167,1056.1873 
		1479.3468,1305.1073 	"/>
	<path fill="none" stroke="#000000" stroke-width="11" stroke-miterlimit="18" d="M1754.4167,1056.1873
		c-69.8199-11.6799-135.1799-15.16-192.4299-3.72c-52.22,10.4301-97.6901,33.27-133.64,73.64"/>
	<path fill="none" stroke="#000000" stroke-width="11" stroke-miterlimit="18" d="M986.1668,1016.2073c-0.01,0-0.02-0.01-0.03-0.01
		c-111.14-44.76-212.88-82.93-307.79-150.09c-90.14-63.79-192.64-110.92-320.26-124.54c-0.36-0.04-0.71-0.08-1.07-0.12"/>
	<path fill="none" stroke="#000000" stroke-width="11" stroke-miterlimit="18" d="M447.6868,889.4473
		c-92-56-137.52-56.26-175.34-105.34c-17.72-23-20.93-41.22,6-56.66c20.07-11.51,50.12-15.2,83.22-17.46
		c57.04-3.91,123.13-3.61,162.78-31.88c27.46,14.76,59.34,23.53,97.34,24c81.33,56,148.44,122.67,201.33,200"/>
	<polyline fill="none" stroke="#000000" stroke-width="11" stroke-miterlimit="18" points="1663.3468,951.1073 1561.9868,1052.4673 
		1394.3468,1220.1073 	"/>
	<path fill="none" stroke="#000000" stroke-width="11" stroke-miterlimit="18" d="M1873.6868,556.7773
		c-8.6599,14.2-15.99,33.74-22,58.67c-1.1599,56.11-10.71,107.88-29.6699,154.81c-29.26,72.46-80.9301,133.37-158.67,180.85
		c-149.6,48.2-233.4401,107.03-262.15,174.79c-12.6,29.73-14.59,61.1799-6.85,94.21"/>
	<path fill="none" stroke="#000000" stroke-width="11" stroke-miterlimit="18" d="M1851.6868,615.4473
		c-15.09-19.49-35.77-23.16-59.34-18.67"/>
	<path fill="none" stroke="#000000" stroke-width="11" stroke-miterlimit="18" d="M2020.3468,523.4473
		c44.86-38.45,64.6801-101.97,37.17-125.84c-49-42.5-235.5-51.5-386.5,52c7.8099,63.15,30.5499,122.28,71.5,176.5
		c47.37,46.53,81.62,114.12,79.5,144.15"/>
	<path fill="none" stroke="#000000" stroke-width="11" stroke-linejoin="round" stroke-miterlimit="18" d="M554.5468,546.4073
		c106.88,14.52,190.47,18.7,286.47,30.37l32.67-70.67c-79.84-63.5-190.8-73.86-325.34-44l15.71,26.58
		c3.12,5.28-2.47,11.41-8.01,8.79l-28.36-13.37L554.5468,546.4073c14.44,46.8,38.44,99.74,67.14,155.7
		c38.6801,53.16,63.04,107.41,56.66,164"/>
	<path fill="none" stroke="#000000" stroke-width="11" stroke-miterlimit="18" d="M527.6868,484.1073
		c-52.59,51.34-13.84,125.9,94,218"/>
	<path fill="none" stroke="#000000" stroke-width="11" stroke-linejoin="round" stroke-miterlimit="18" d="M662.0168,607.6073
		c178.5,42,373.53,158.53,614.5001,312c46.1399,28.99,129.0299,16.39,225-11c59.5199-15.05,114.76-7.67,161.83,42.5
		c-15.65-66.32-93.24-118.71-273.5601-148c-113.4299-21.08-261.45-102.17-418.27-195.5c-28.58-17-73.4-28.78-130.5-30.83"/>
	<path fill="none" stroke="#000000" stroke-width="11" stroke-linejoin="round" stroke-miterlimit="18" d="M894.0168,461.1073
		l-81.53-65.22c-5.36-4.29-8.38-10.88-8.07-17.74c2.91-64.99,15.36-121.61,37.95-169.3c4.09-8.64,10.31-16.1,18.14-21.6
		c56.84-39.88,120.02-62.73,189.5101-68.64l25.0499-50.54c1.7101-3.45,5.64-5.18,9.35-4.15c120.89,33.64,238.13,37.37,349.7201-5.31
		c5.88-2.25,12.39-2.23,18.26,0.06c35.2599,13.77,63.23,29.21,81.12,46.94c33.21,11.03,71.09,23.59,111.5,37
		c56.08,8.97,98.2799,24.29,133.24,42.91c7.96,4.23,11.8199,13.57,9.0699,22.15c-9.88,30.79-57.6799,91.77-128.3099,170.94
		l-35.5,69.5h-29.5l17.75,36.25c-82.5901,103.17-159.0801,206.92-221.9801,318.75c-6.2899-107.69-69.62-204.49-164.7699-295.21
		C1091.4968,537.0373,978.8768,525.8473,894.0168,461.1073l-20.33,45"/>
	<path fill="none" stroke="#000000" stroke-width="11" stroke-linejoin="round" stroke-miterlimit="18" d="M1659.0168,378.6073
		c7.25,24.25,11.1699,47.91,12,71"/>
	<path fill="none" stroke="#000000" stroke-width="11" stroke-linejoin="round" stroke-miterlimit="18" d="M1671.0269,271.0073
		c16.9099-18.26,34.5599-35.91,52.99-52.9"/>
	<path fill="none" stroke="#000000" stroke-width="11" stroke-linejoin="round" stroke-miterlimit="18" d="M1389.7867,803.1073
		c56.28-196.7,144.3301-384.24,281.2301-532.08"/>
	<path fill="none" stroke="#000000" stroke-width="11" stroke-linejoin="round" stroke-miterlimit="18" d="M1533.5168,105.6073h-91
		c93.38,39.83,161.3099,75.38,198.6,105.79c28.11,22.91,38.8099,42.91,29.91,59.61c0,0.01-0.01,0.01-0.01,0.02"/>
	<path fill="none" stroke="#000000" stroke-width="11" stroke-linejoin="round" stroke-miterlimit="18" d="M1442.5168,105.6073
		c-54.66-5.22-115.88,0.34-180.5,11.5c-36.54,10.19-89.8401,15.58-147.12,19.83c-10.8301,0.8-21.3201,4.12-30.63,9.71
		c-27.75,16.66-56.12,33.89-84.7501,51.46l50.5001-79.5"/>
	<path fill="none" stroke="#000000" stroke-width="11" stroke-linejoin="round" stroke-miterlimit="18" d="M1225.0168,507.8973
		c2.13-0.67,4.0299-1.43,5.6799-2.29c9.46-4.95,6.7001-19.25-3.88-20.67c-22.09-2.96-43.46-6.91-64.13-11.83
		c-68.15-16.19-128.64-42.96-181.67-80c-15.71-14.08-29.77-28.44-42-43.08c-26.34-31.51-44.24-64.39-52-98.92"/>
	<path fill="none" stroke="#000000" stroke-width="11" stroke-linejoin="round" stroke-miterlimit="18" d="M999.5168,198.1073
		c-32.41,21.63-51.7,46.19-60.5,74.5c-0.81,2.6-1.58,5.19-2.31,7.78c-6.07,21.6-8.76,43.22,2.31,69.64"/>
	<path fill="none" stroke="#000000" stroke-width="11" stroke-linejoin="round" stroke-miterlimit="18" d="M1162.6868,473.1173
		v-0.01c-1.5699-18.11-7.46-34.14-17.0499-48.39c-6.2201-9.26-14.01-17.77-23.1901-25.6c-17.0499-14.6-38.89-26.89-64.39-37.41
		c-3.6599-1.51-7.4-2.99-11.21-4.43c-49.22-18.32-86.48-43.64-110.14-76.89"/>
	<path fill="none" stroke="#000000" stroke-width="11" stroke-linejoin="round" stroke-miterlimit="18" d="M1145.6368,424.7173
		c38.2799-19.94,88.49-14.14,150.6699,17.39c58.9701,27.99,112.04,28.6,157.7101-5c41.5499-37.34,73.2899-84.81,99-138.5
		c56.0399-23.55,94.74-45.78,67.5-63"/>
	<path fill="none" stroke="#000000" stroke-width="11" stroke-linejoin="round" stroke-miterlimit="18" d="M1553.0168,298.6073
		c20.21-45.42,26.47-79.05,0-85l-93.5-32.5c34.3099,23.06,61.5499,43.92,69.5,58.75c-12.65,14.57-29.1801,28.01-48.9401,40.52
		c-17.36,11-37.22,21.27-59.13,30.94c-55.74,24.62-124.78,45.39-199.9299,64.38c-31.9401,8.07-64.9701,15.82-98.5601,23.41"/>
	<path fill="none" stroke="#000000" stroke-width="11" stroke-linejoin="round" stroke-miterlimit="18" d="M1058.0868,361.7273
		c-0.01-0.01-0.02-0.01-0.03-0.02c-33.33-22.45-63.66-44.65-75.58-65.23c-6.29-10.86-5.12-24.54,2.78-34.29
		c14.73-18.16,30.45-30.26,47.36-34.93c8.35-2.31,17.24-1.93,25.4199,0.92c28.2401,9.83,56.6801,14.23,85.27,14.23
		c21.15,0,42.4-2.41,63.7101-6.8c48.46-42.66,103.1899-73.61,166.9099-87.76c8.52-1.89,17.4601-0.04,24.41,5.24
		c53.91,40.86,86.61,82.96,81.74,127.29v0.01"/>
	<path fill="none" stroke="#000000" stroke-width="11" stroke-linejoin="round" stroke-miterlimit="18" d="M1420.9468,311.3173
		c5.48-66.32-100.96-72.76-213.9299-75.71"/>
	<path fill="none" stroke="#000000" stroke-width="11" stroke-linejoin="round" stroke-miterlimit="18" d="M1221.0168,375.6973
		c-93.67-15.75-169.75-38.16-174.2101-87.75c-0.6699-7.47,5.3301-13.88,12.8301-13.88h83.6699h42.7001c4.46,0,8.89,0.78,13.09,2.29
		c44.74,16.09,83.62,32.35,108.38,49.04c2.02,1.36,4.27,2.27,6.61,2.72c2.92,0.57,5.98,0.4,8.89-0.53
		c16.09-5.17,27.54-12.45,33.71-22.14"/>
	<path fill="none" stroke="#000000" stroke-width="11" stroke-linejoin="round" stroke-miterlimit="18" d="M1314.0868,328.1173
		c-10,8.71-35.71,11.19-68.08,11.02c-31.67-0.15-69.7201-2.84-105.66-4.69c-7.13-3.78-13.88-7.51-20.22-11.19
		c-13.98-8.1-25.9501-15.95-35.4401-23.48l86.3301-2.67c30.5199,7.63,61.8999,27.09,74.99,42.03
		c-49.27-20.65-92.4301-28.47-125.88-15.88"/>
</g>
</svg>
